<svg width="104" height="119" viewBox="0 0 104 119" fill="none" xmlns="http://www.w3.org/2000/svg">
<path d="M102.213 80.232L94.3664 75.6998L100.402 74.0729C102.306 73.5615 103.443 71.5859 102.932 69.6801L102.004 66.217C101.493 64.3111 99.52 63.1723 97.6164 63.6836L81.1807 68.0996L66.3468 59.5L81.1575 50.9236L97.5932 55.3396C99.4968 55.851 101.47 54.7121 101.981 52.8062L102.909 49.3432C103.42 47.4373 102.282 45.4617 100.379 44.9504L94.3432 43.3234L102.19 38.7912C103.907 37.7918 104.488 35.607 103.513 33.8871L99.9146 27.6582C98.9164 25.9383 96.7343 25.3572 95.0164 26.3334L87.17 30.8656L88.795 24.8227C89.3057 22.9168 88.1682 20.9412 86.2646 20.4299L82.8057 19.5002C80.9021 18.9889 78.9289 20.1277 78.4182 22.0336L74.0075 38.4891L59.4289 46.9027V28.89L71.895 16.409C73.3343 14.968 73.3343 12.5973 71.895 11.1562L69.2718 8.52988C67.8325 7.08887 65.4646 7.08887 64.0253 8.52988L59.4289 13.1086V3.71875C59.4289 1.67344 57.7575 0 55.7146 0H48.2861C46.2432 0 44.5718 1.67344 44.5718 3.71875V13.1086L39.9986 8.52988C38.5593 7.08887 36.1914 7.08887 34.7521 8.52988L32.1057 11.1562C30.6432 12.5973 30.6432 14.968 32.1057 16.409L44.5718 28.89V46.9027L29.9932 38.4891L25.5825 22.0336C25.0718 20.1277 23.0986 18.9889 21.195 19.5002L17.7361 20.4299C15.8325 20.9412 14.695 22.9168 15.2057 24.8227L16.8307 30.8656L8.98426 26.3334C7.26641 25.334 5.08426 25.9383 4.08605 27.6582L0.487835 33.8639C-0.51038 35.5838 0.0931918 37.7686 1.81105 38.768L9.65748 43.3002L3.62176 44.9272C1.69498 45.4385 0.557478 47.4141 1.06819 49.3432L1.99676 52.8062C2.50748 54.7121 4.48069 55.851 6.38426 55.3396L22.82 50.9236L37.6307 59.5L22.82 68.0764L6.38426 63.6604C4.48069 63.149 2.50748 64.2879 1.99676 66.1937L1.06819 69.6568C0.557478 71.5627 1.69498 73.5383 3.59855 74.0496L9.63426 75.6766L1.78783 80.232C0.0699774 81.2314 -0.51038 83.4162 0.46462 85.1361L4.06284 91.365C5.06105 93.085 7.24319 93.666 8.96105 92.6898L16.8075 88.1576L15.1825 94.2006C14.6718 96.1064 15.8093 98.082 17.7128 98.5934L21.1718 99.523C23.0753 100.034 25.0486 98.8955 25.5593 96.9896L29.97 80.5342L44.5486 72.1205V90.1332L32.0825 102.614C30.62 104.055 30.62 106.426 32.0825 107.867L34.7057 110.493C36.145 111.934 38.5128 111.934 39.9521 110.493L44.5253 105.915V115.281C44.5253 117.327 46.1968 119 48.2396 119H55.6682C57.7111 119 59.3825 117.327 59.3825 115.281V105.891L63.9557 110.47C65.395 111.911 67.7628 111.911 69.2021 110.47L71.8253 107.844C73.2646 106.403 73.2646 104.032 71.8253 102.591L59.4289 90.11V72.0973L74.0075 80.5109L78.4182 96.9664C78.9289 98.8723 80.9021 100.011 82.8057 99.4998L86.2646 98.5701C88.1682 98.0588 89.3057 96.0832 88.795 94.1773L87.17 88.1344L95.0164 92.6666C96.7343 93.666 98.9164 93.0617 99.9146 91.3418L103.513 85.1129C104.511 83.4162 103.931 81.2082 102.213 80.232Z" fill="black"/>
</svg>
